<?xml version="1.0" encoding="utf-8"?>
<!-- Generator: Adobe Illustrator 26.5.0, SVG Export Plug-In . SVG Version: 6.00 Build 0)  -->
<svg version="1.1" id="Layer_1" xmlns="http://www.w3.org/2000/svg" xmlns:xlink="http://www.w3.org/1999/xlink" x="0px" y="0px"
	 viewBox="0 0 2900.3 1000" style="enable-background:new 0 0 2900.3 1000;" xml:space="preserve">
<style type="text/css">
	.st0{fill:#274380;}
	.st1{fill:#FFFFFF;}
</style>
<g>
	<g>
		<g>
			<path class="st1" d="M1001.5,257.1c18.8,0,28.5,11.3,28.5,30.9v3.9h-18.3v-5.1c0-8.8-3.5-12.1-9.7-12.1c-6.2,0-9.7,3.3-9.7,12.1
				c0,9,3.9,15.6,16.5,26.7c16.2,14.2,21.3,24.4,21.3,38.5c0,19.7-9.8,30.9-28.8,30.9s-28.8-11.3-28.8-30.9v-7.6h18.3v8.8
				c0,8.8,3.9,12,10,12c6.2,0,10-3.2,10-12c0-9-3.9-15.6-16.5-26.7c-16.2-14.2-21.3-24.4-21.3-38.5
				C973.1,268.3,982.7,257.1,1001.5,257.1z"/>
			<path class="st1" d="M1060.6,310.3h26.5v17.6h-26.5v36h33.4v17.6h-52.7V258.5h52.7v17.6h-33.4V310.3z"/>
			<path class="st1" d="M1162,335.7V352c0,19.7-9.8,30.9-28.8,30.9s-28.8-11.3-28.8-30.9v-64c0-19.7,9.8-30.9,28.8-30.9
				s28.8,11.3,28.8,30.9v12h-18.3v-13.2c0-8.8-3.9-12.1-10-12.1c-6.2,0-10,3.3-10,12.1v66.5c0,8.8,3.9,12,10,12c6.2,0,10-3.2,10-12
				v-17.6H1162z"/>
			<path class="st1" d="M1214.3,381.5c-1.1-3.2-1.8-5.1-1.8-15.1v-19.3c0-11.4-3.9-15.6-12.7-15.6h-6.7v50.1h-19.3V258.5h29.2
				c20,0,28.7,9.3,28.7,28.3v9.7c0,12.7-4,20.7-12.7,24.8v0.4c9.7,4,12.8,13.2,12.8,26v19c0,6,0.2,10.4,2.1,14.9H1214.3z
				 M1193.2,276.1v37.8h7.6c7.2,0,11.6-3.2,11.6-13v-12.1c0-8.8-3-12.7-9.8-12.7H1193.2z"/>
			<path class="st1" d="M1263.8,310.3h26.5v17.6h-26.5v36h33.4v17.6h-52.7V258.5h52.7v17.6h-33.4V310.3z"/>
			<path class="st1" d="M1303.6,258.5h59.8v17.6h-20.2v105.5h-19.3V276.1h-20.2V258.5z"/>
			<path class="st1" d="M1427.7,381.5h-19.5l-3.3-22.3h-23.7l-3.3,22.3H1360l19.7-123.1h28.3L1427.7,381.5z M1383.5,342.5h18.6
				l-9.1-62.2h-0.4L1383.5,342.5z"/>
			<path class="st1" d="M1477.1,381.5c-1.1-3.2-1.8-5.1-1.8-15.1v-19.3c0-11.4-3.9-15.6-12.7-15.6h-6.7v50.1h-19.3V258.5h29.2
				c20,0,28.7,9.3,28.7,28.3v9.7c0,12.7-4,20.7-12.7,24.8v0.4c9.7,4,12.8,13.2,12.8,26v19c0,6,0.2,10.4,2.1,14.9H1477.1z
				 M1456,276.1v37.8h7.6c7.2,0,11.6-3.2,11.6-13v-12.1c0-8.8-3-12.7-9.8-12.7H1456z"/>
			<path class="st1" d="M1507.3,258.5h19.3v123.1h-19.3V258.5z"/>
			<path class="st1" d="M1603.3,381.5h-19.5l-3.3-22.3h-23.7l-3.3,22.3h-17.8l19.7-123.1h28.3L1603.3,381.5z M1559.2,342.5h18.6
				l-9.1-62.2h-0.4L1559.2,342.5z"/>
			<path class="st1" d="M1639.5,258.5h30.6c19.3,0,28.8,10.7,28.8,30.4v62.2c0,19.7-9.5,30.4-28.8,30.4h-30.6V258.5z M1658.8,276.1
				V364h10.9c6.2,0,9.8-3.2,9.8-12v-64c0-8.8-3.7-12-9.8-12H1658.8z"/>
			<path class="st1" d="M1730.6,310.3h26.5v17.6h-26.5v36h33.4v17.6h-52.7V258.5h52.7v17.6h-33.4V310.3z"/>
			<path class="st1" d="M1859.3,335.7V352c0,19.7-9.8,30.9-28.8,30.9s-28.8-11.3-28.8-30.9v-64c0-19.7,9.8-30.9,28.8-30.9
				s28.8,11.3,28.8,30.9v12H1841v-13.2c0-8.8-3.9-12.1-10-12.1c-6.2,0-10,3.3-10,12.1v66.5c0,8.8,3.9,12,10,12c6.2,0,10-3.2,10-12
				v-17.6H1859.3z"/>
			<path class="st1" d="M1889.5,258.5v94.9c0,8.8,3.9,12,10,12c6.2,0,10-3.2,10-12v-94.9h18.3v93.7c0,19.7-9.8,30.9-28.8,30.9
				s-28.8-11.3-28.8-30.9v-93.7H1889.5z"/>
			<path class="st1" d="M1941,258.5h19.3V364h31.8v17.6H1941V258.5z"/>
			<path class="st1" d="M1986.2,258.5h59.8v17.6h-20.2v105.5h-19.3V276.1h-20.2V258.5z"/>
			<path class="st1" d="M2072.8,258.5v94.9c0,8.8,3.9,12,10,12c6.2,0,10-3.2,10-12v-94.9h18.3v93.7c0,19.7-9.8,30.9-28.8,30.9
				s-28.8-11.3-28.8-30.9v-93.7H2072.8z"/>
			<path class="st1" d="M2164.8,381.5c-1.1-3.2-1.8-5.1-1.8-15.1v-19.3c0-11.4-3.9-15.6-12.7-15.6h-6.7v50.1h-19.3V258.5h29.2
				c20,0,28.7,9.3,28.7,28.3v9.7c0,12.7-4,20.7-12.7,24.8v0.4c9.7,4,12.8,13.2,12.8,26v19c0,6,0.2,10.4,2.1,14.9H2164.8z
				 M2143.7,276.1v37.8h7.6c7.2,0,11.6-3.2,11.6-13v-12.1c0-8.8-3-12.7-9.8-12.7H2143.7z"/>
			<path class="st1" d="M2257.6,381.5h-19.5l-3.3-22.3H2211l-3.3,22.3h-17.8l19.7-123.1h28.3L2257.6,381.5z M2213.5,342.5h18.6
				l-9.1-62.2h-0.4L2213.5,342.5z"/>
			<path class="st1" d="M2313.2,310.3h26.5v17.6h-26.5v36h33.4v17.6h-52.7V258.5h52.7v17.6h-33.4V310.3z"/>
			<path class="st1" d="M2380.1,258.5h59.8v17.6h-20.2v105.5h-19.3V276.1h-20.2V258.5z"/>
			<path class="st1" d="M2466.8,258.5v94.9c0,8.8,3.9,12,10,12c6.2,0,10-3.2,10-12v-94.9h18.3v93.7c0,19.7-9.8,30.9-28.8,30.9
				s-28.8-11.3-28.8-30.9v-93.7H2466.8z"/>
			<path class="st1" d="M2558.7,381.5c-1.1-3.2-1.8-5.1-1.8-15.1v-19.3c0-11.4-3.9-15.6-12.7-15.6h-6.7v50.1h-19.3V258.5h29.2
				c20,0,28.7,9.3,28.7,28.3v9.7c0,12.7-4,20.7-12.7,24.8v0.4c9.7,4,12.8,13.2,12.8,26v19c0,6,0.2,10.4,2.1,14.9H2558.7z
				 M2537.6,276.1v37.8h7.6c7.2,0,11.6-3.2,11.6-13v-12.1c0-8.8-3-12.7-9.8-12.7H2537.6z"/>
			<path class="st1" d="M2589,258.5h19.3v123.1H2589V258.5z"/>
			<path class="st1" d="M2648.4,257.1c18.8,0,28.5,11.3,28.5,30.9v3.9h-18.3v-5.1c0-8.8-3.5-12.1-9.7-12.1s-9.7,3.3-9.7,12.1
				c0,9,3.9,15.6,16.5,26.7c16.2,14.2,21.3,24.4,21.3,38.5c0,19.7-9.8,30.9-28.8,30.9s-28.8-11.3-28.8-30.9v-7.6h18.3v8.8
				c0,8.8,3.9,12,10,12c6.2,0,10-3.2,10-12c0-9-3.9-15.6-16.5-26.7c-16.2-14.2-21.3-24.4-21.3-38.5
				C2619.9,268.3,2629.6,257.1,2648.4,257.1z"/>
			<path class="st1" d="M2728.9,345.9h0.4l13-87.4h26.9v123.1h-18.3v-88.2h-0.4l-13,88.2h-18.3l-14.1-87h-0.4v87H2688V258.5h26.9
				L2728.9,345.9z"/>
			<path class="st1" d="M2781.7,288c0-19.7,10.4-30.9,29.4-30.9s29.4,11.3,29.4,30.9v64c0,19.7-10.4,30.9-29.4,30.9
				s-29.4-11.3-29.4-30.9V288z M2801,353.2c0,8.8,3.9,12.1,10,12.1c6.2,0,10-3.3,10-12.1v-66.5c0-8.8-3.9-12.1-10-12.1
				c-6.2,0-10,3.3-10,12.1V353.2z"/>
		</g>
		<g>
			<path class="st1" d="M1116.3,506.7v36.8c0,45.2-21.8,69.9-66.2,69.9h-21v106.2h-44.4V436.8h65.4
				C1094.5,436.8,1116.3,461.5,1116.3,506.7z M1029.1,477.2V573h21c14.1,0,21.8-6.5,21.8-26.7v-42.4c0-20.2-7.7-26.7-21.8-26.7
				H1029.1z"/>
			<path class="st1" d="M1136.9,436.8h44.4v242.4h73.1v40.4h-117.5V436.8z"/>
			<path class="st1" d="M1417.7,719.6h-44.8l-7.7-51.3h-54.5l-7.7,51.3h-40.8l45.2-282.8h65L1417.7,719.6z M1316.3,629.9h42.8
				l-21-143h-0.8L1316.3,629.9z"/>
			<path class="st1" d="M1478.7,514.8h-0.8v204.8h-40V436.8h55.7l44.8,169.2h0.8V436.8h39.6v282.8h-45.6L1478.7,514.8z"/>
			<path class="st1" d="M1754.5,719.6h-44.8l-7.7-51.3h-54.5l-7.7,51.3H1599l45.2-282.8h65L1754.5,719.6z M1653.2,629.9h42.8
				l-21-143h-0.8L1653.2,629.9z"/>
			<path class="st1" d="M1775.1,436.8h44.4v242.4h73.1v40.4h-117.5V436.8z"/>
			<path class="st1" d="M1879,436.8h137.3v40.4h-46.5v242.4h-44.4V477.2H1879V436.8z"/>
			<path class="st1" d="M2035.7,436.8h44.4v282.8h-44.4V436.8z"/>
			<path class="st1" d="M2152.8,514.8h-0.8v204.8h-40V436.8h55.7l44.8,169.2h0.8V436.8h39.6v282.8h-45.6L2152.8,514.8z"/>
			<path class="st1" d="M2428.7,719.6h-44.8l-7.7-51.3h-54.5l-7.7,51.3h-40.8l45.2-282.8h65L2428.7,719.6z M2327.3,629.9h42.8
				l-21-143h-0.8L2327.3,629.9z"/>
			<path class="st1" d="M2443.2,558h80.8v40.4h-80.8V558z"/>
			<path class="st1" d="M2621,562.1h62.2v89.7c0,45.2-22.6,71.1-66.2,71.1c-43.6,0-66.2-25.9-66.2-71.1v-147
				c0-45.2,22.6-71.1,66.2-71.1c43.6,0,66.2,25.9,66.2,71.1v27.5h-42v-30.3c0-20.2-8.9-27.9-23-27.9s-23,7.7-23,27.9v152.7
				c0,20.2,8.9,27.5,23,27.5s23-7.3,23-27.5v-52.1H2621V562.1z"/>
			<path class="st1" d="M2708.2,504.7c0-45.2,23.8-71.1,67.5-71.1c43.6,0,67.5,25.9,67.5,71.1v147c0,45.2-23.8,71.1-67.5,71.1
				c-43.6,0-67.5-25.9-67.5-71.1V504.7z M2752.6,654.6c0,20.2,8.9,27.9,23,27.9s23-7.7,23-27.9V501.9c0-20.2-8.9-27.9-23-27.9
				s-23,7.7-23,27.9V654.6z"/>
		</g>
	</g>
	<g>
		<g>
			<path class="st1" d="M849.7,237.2c-0.6,1.1-0.9,1.8-1.3,2.5c-5.1,8.3-10.3,16.7-15.5,25c-15,24.3-28.6,49.4-39.7,75.8
				c-8.3,19.7-12.9,40.3-14.6,61.6c-1.6,20.4-0.9,40.7,1.4,61c3.9,34.2,10.1,68.1,16.9,101.8c5.1,25.5,10.8,50.8,15.9,76.2
				c4,19.8,6.4,39.9,7.3,60.2c0.8,18.6-0.1,37-3.1,55.4c-8.2,50.7-32.6,91.6-73.6,122.6c-22.1,16.7-46.6,29-72.2,39.2
				c-27.7,11.1-56.2,19.5-84.8,28c-19.4,5.8-38.7,11.8-57.8,18.3c-20.8,7-40.3,16.7-58,29.8c-2.5,1.8-5.1,3.5-7.6,5.2
				c-0.2,0.1-0.5,0.1-0.9,0.3c-2.2-1.5-4.6-3-6.8-4.7c-19.7-14.7-41.6-25-64.8-32.5c-24.7-8-49.6-15.4-74.5-22.9
				c-26.5-8.1-52.8-16.7-78.1-28c-26-11.6-50.4-25.8-71.6-45.1c-28.7-26.2-47.1-58.4-55.8-96.1c-5.7-24.8-6.9-49.9-5.5-75.3
				c1.6-28.3,7.1-55.9,13.1-83.4c8-36,15.4-72.1,21-108.6c2.7-17.7,5.3-35.4,6.9-53.2c2.9-31.5,1.2-62.7-8.4-93.2
				c-5.4-17.4-13.3-33.7-21.8-49.8c-7.5-14.1-15.2-28-23.1-41.9c-5.5-9.6-11.4-18.9-17.2-28.3c-0.7-1.1-1.3-2.3-2.1-3.7
				c1.8-1.1,3.5-2.1,5.2-3.1c48-28,99-48.9,152.4-64.3c31.6-9.1,63.6-16.3,96.1-21.1c19.4-2.9,38.9-5,58.4-6.9
				c32-3.2,64.2-3.7,96.3-2.8c18.7,0.5,37.5,1.9,56.2,3.4c29.2,2.3,58.2,6.8,86.9,12.7c78.1,15.9,152.1,42.4,220.6,83.6
				C847.1,235.5,848.2,236.2,849.7,237.2z M119.4,248c2.4,4,4.6,7.8,6.9,11.5c11.7,18.5,22.7,37.4,31.7,57.4
				c11.3,25.3,18.7,51.6,21,79.3c2.1,25.1,0,50-3.1,74.8c-1.6,12.7-3.5,25.4-5.6,38.1c-2.9,17.4-5.7,34.7-9.1,52
				c-5.9,29.6-12.3,59-18.4,88.5c-3.4,16.4-5.5,33.1-6.2,49.8c-0.9,19.4-0.3,38.7,3.6,57.8c3.7,18,9.6,35,18.9,50.9
				c13.1,22.2,31.2,39.5,52.5,53.6c22.6,14.9,47.2,25.9,72.7,34.3c29.2,9.7,58.7,18.3,88.1,27.4c20.9,6.4,41.7,13.1,61.5,22.5
				c9.8,4.7,19.2,10.1,29.2,15.4c15.9-10.5,33.7-18.6,52.1-25.4c22.9-8.5,46.4-15,69.8-22c27.8-8.3,55.6-16.7,82.4-28
				c25.5-10.8,49.5-24,70.1-42.8c14.1-12.9,25.4-27.8,33.8-44.9c12.3-25.1,17-51.9,17.5-79.5c0.2-10.5-0.5-21.1-1.4-31.6
				c-0.9-10.6-2.4-21.1-4.1-31.6c-1.9-11.3-4.5-22.5-6.8-33.7c-4.6-22.1-9.3-44.2-13.7-66.3c-2.6-13.1-4.7-26.2-6.9-39.3
				c-1.8-10.6-3.4-21.2-4.9-31.9c-1.2-8.7-2.3-17.5-3.1-26.2c-0.8-8-1.2-16.1-1.8-24.2c-1.4-20.8-0.3-41.4,3.4-61.9
				c4.1-22.4,11.8-43.6,21.7-64c8.1-16.8,17.6-32.7,27.6-48.5c1.6-2.5,2.9-5.3,4.5-8.4c-6.3-3.5-12-7.1-18-10
				c-27.3-13.6-55.6-24.9-84.7-34.4c-27.3-8.9-54.9-16.3-83.1-21.6c-12.8-2.4-25.7-4.6-38.6-6.7c-10.5-1.7-21-3.1-31.6-4.3
				c-9.5-1.1-19-1.7-28.5-2.4c-12.6-0.8-25.2-1.9-37.8-2c-27.6-0.3-55.2-0.5-82.7,2.1c-12.7,1.2-25.4,2.2-38,3.7
				c-14.2,1.7-28.4,3.7-42.4,6.1c-20.2,3.5-40.2,7.9-60,13.1c-46.6,12.3-91.7,28.6-134.5,51.1C121.9,246.5,120.7,247.2,119.4,248z"
				/>
		</g>
		<g>
			<path class="st1" d="M65,218.7c-15.6-25.2-31-50.1-46.6-75.3c53-30.6,108.7-54,167.3-71.7c3.8,7.7,7.5,15.3,11.4,23.2
				c53.8-16.3,108.5-27.1,164.6-33c0-8.1,0-16.2,0-24.7c67.3-6.6,134.2-6.3,201.4,0.8c0,8.3,0,16.3,0,24.8
				c56.2,6.5,111,17.8,165,34.9c2-4,3.8-7.8,5.7-11.6c1.8-3.7,3.6-7.5,5.7-11.6c58.2,18.3,113.6,42.3,166.4,73.7
				c-16.1,24.8-32.1,49.4-48.3,74.3c-1-0.5-1.9-0.9-2.7-1.4c-49.5-30.1-102.5-52.4-157.9-69c-32.8-9.8-66.1-17.5-99.9-22.6
				c-20.8-3.2-41.8-5.5-62.8-7.7c-29.1-3-58.3-4-87.5-3.3c-22.9,0.6-45.9,1.5-68.7,3.6c-83.7,7.5-164.6,26.7-241.8,60.2
				c-23.3,10.1-45.9,21.6-67.8,34.5C67.4,217.4,66.4,217.9,65,218.7z"/>
		</g>
		<g>
			<path class="st1" d="M361.9,29.3c-0.1-1.3-0.2-2-0.2-2.7c0-7.2,0-14.5,0-22.3c67.1-6.1,134-5.8,201.2,0.8c0,8.3,0,16.3,0,24.9
				c-33.4-3.3-66.8-5.3-100.3-5.4C429.1,24.6,395.7,26.2,361.9,29.3z"/>
		</g>
		<g>
			<path class="st1" d="M924.2,116.8c-4.7,8.1-9.2,15.7-14,23.8c-52.9-31.1-108.6-55.1-167.3-73.6c3.9-8,7.6-15.6,11.4-23.5
				C813.7,62,870.3,85.9,924.2,116.8z"/>
		</g>
		<g>
			<path class="st1" d="M0,112.1c54.5-30.3,111.3-53.5,170.7-71.3c3.2,6.6,6.2,12.8,9.3,19.1c0.6,1.3,1.2,2.7,2,4.4
				c-58.7,17.8-114.7,41.1-168,71.6C9.3,127.9,4.8,120.3,0,112.1z"/>
		</g>
		<g>
			<path class="st1" d="M494.7,566.4c-1.7,0.7-3,1.5-4.5,1.9c-9.6,2.7-19.2,5.4-28.8,8.1c-1.8,0.5-3.2,0.5-4.8-0.7
				c-6.8-4.8-14.3-6.3-22.5-4.7c-9.8,1.9-16.7,7.5-20.7,16.4c-5,11.3-2.8,24.4,6.2,33.2c6.2,6.1,13.7,9.1,22.3,8.4
				c9.8-0.9,18-5.1,23-14.2c1.4-2.5,2.1-5.7,4.2-7.5c1.9-1.7,5.1-2.2,7.7-3c8.1-2.6,16.3-5,24.5-7.5c0.8-0.2,1.6-0.2,2.4-0.3
				c2.9,11.1,2.5,22-1.3,32.6c-3.9,10.8-11.8,18-22.8,21.2c-5.1,1.5-10.6,1.9-15.9,2.4c-7.8,0.7-15.7,0.8-23.5,1.6
				c-5.4,0.6-9.8,3-13.5,7.3c-8.8,10.5-17.9,20.8-28.9,29.2c-10.4,7.9-22,12.1-35.2,11.1c-4.1-0.3-8.1-1.7-12-2.8
				c-2.4-0.7-4.9-1.5-7.1-2.8c-8.4-4.9-15.3-11.5-20.3-19.8c-9-14.7-15.7-30.4-19.2-47.3c-1.7-8.3-3.3-16.7-3.5-25.4
				c-0.1-5.8-0.3-11.5,0.8-17.1c3.4-17.8,14.4-29.3,30.5-36.3c12.9-5.6,26.3-5.9,39.9-2.7c6.6,1.6,13.2,3.7,19.8,5
				c5,1,10.2,1.5,15.3,1.4c2.6,0,5.5-1.2,7.9-2.6c4.9-2.8,9.5-6,14.3-9c6.6-4.3,13.7-7.6,21.5-8.8c10.5-1.6,19.9,0.6,28,7.7
				c6.1,5.3,10.9,11.6,13.5,19.3C492.6,562.6,493.6,564.3,494.7,566.4z M349.3,586.3c0.1,0.6,0.2,1.2,0.4,1.8
				c3.1,10.6,6.1,21.3,9.3,31.9c3.6,12.1,7.4,24.2,11.1,36.3c1,3.1,1.4,3.3,4.4,2.6c6.9-1.6,7.3-2.4,5.2-9.6
				c-5-16.8-9.9-33.6-14.9-50.4c-1.4-4.5-2.8-9.1-4.3-13.6c-0.4-1.3-0.9-2.6-2.7-2.3C354.8,583.7,351.8,584.2,349.3,586.3z"/>
		</g>
		<g>
			<path class="st1" d="M356.7,705.9c16.7,2.5,31.2-1.6,44.2-11.6c8.6-6.7,16.6-14.2,23.3-22.8c2.3-3,4.9-5.9,7.5-8.5
				c2.9-2.9,6.7-4.1,10.7-4.4c8.4-0.6,16.9-0.9,25.3-1.5c10.4-0.7,19.9-3.5,28-10.4c7.7-6.6,11.6-15.3,13.4-25
				c1.5-8.1,0.9-16.1-0.2-24.1c0-0.4,0-0.7,0-1.5c5.2-1.6,10.5-3.1,15.9-4.8c2.4,9.2,4.5,18.1,6.9,26.9c3.7,13.5,8.1,26.9,11.4,40.5
				c2.8,11.2,4.9,22.7,6.4,34.2c1.9,15.2,3.4,30.4,4.2,45.7c0.8,13.8,0.7,27.7,0.6,41.6c0,9.3-0.4,18.6-1.1,27.9
				c-1.1,15.1-2.4,30.3-6.6,44.9c-0.9,3-2.2,6-3.8,8.7c-2.3,3.9-5.6,4-7.5-0.1c-2.3-4.8-4.3-9.9-5.5-15.1c-3.5-15-6.5-30.1-9.6-45.1
				c-5.3-25.6-10.7-51.2-19.9-75.7c-4.8-12.9-10.6-25.3-19.5-35.9c-6.6-7.8-14.4-13.6-24.8-15.2c-3.6-0.6-6.8,0.4-10,1.5
				c-9.4,3.2-16.2,9.9-22,17.7c-8.5,11.6-14,24.6-18.6,38.1c-6.7,19.2-11.2,38.9-15.5,58.8c-4.2,19.6-8.3,39.2-12.6,58.8
				c-0.8,3.7-2.4,7.2-3.8,10.7c-0.4,1-1.1,1.9-1.8,2.8c-1.9,2.3-4,2.4-5.9,0.2c-1.4-1.7-2.7-3.6-3.2-5.7c-1.9-7.2-4.1-14.4-5.2-21.7
				c-4.7-31.4-4.8-63-3.7-94.7c0.4-10.5,1.4-21,2.2-31.5C356.1,708.2,356.4,707.2,356.7,705.9z"/>
		</g>
		<g>
			<path class="st1" d="M453.8,431c-30.6-0.3-55.8-24.2-55.8-55.9c0-31,24.4-55.8,55.9-55.8c31.6,0,55.8,25,55.8,55.9
				C509.7,406.8,484.5,430.8,453.8,431z"/>
		</g>
		<g>
			<path class="st1" d="M519.1,558.1c-5.5,1.7-11,3.4-16.5,5.1c-2.9,0.9-4,0.8-5.2-2.1c-2.3-5.7-5.1-11.1-8.9-15.9
				c-5.1-6.3-11.1-11.6-18.7-14.3c-9-3.2-18.3-2.8-27.4,0.1c-6,1.9-11.5,4.7-16.7,8.2c-3.6,2.4-7.2,4.6-10.7,7.1
				c-4,2.7-8.3,4.1-13.2,3.4c-4.1-0.6-8.2-1.2-12.7-1.9c0.3-14.1-0.7-27.7-8.7-39.7c11.2-21.3,22.4-42.6,33.8-64.1
				c25.1,4.2,50.1,4.6,75.3,0.6c0.5,0.8,1.2,1.7,1.7,2.7c11,20.4,21.9,40.7,32.9,61.1c1,1.9,1.2,3.4,0.2,5.4
				c-3.9,7.8-5.3,16.3-5.5,24.9C518.6,544.9,518.9,551.4,519.1,558.1z M454.2,471.9c-0.4-0.1-0.6,0-0.6-0.1c-0.5-0.5-1-1-1.5-1.6
				c-4.3-5.1-9.7-7.6-16.5-7.4c-15.3,0.4-25.5,15.7-16.9,29.7c2.6,4.2,6.1,8,9.8,11.3c3.9,3.4,6.6,7.1,7,12.4
				c0.1,1.1,0.7,2.1,1.1,3.1c0.4,0,0.7-0.1,1.1-0.1c0.1-1.2,0.3-2.4,0.4-3.5c0.1-0.9,0.1-1.8,0.1-2.7c1,0.3,2.1,0.4,2.9,0.9
				c1.4,0.8,2.6,1.8,3.9,2.7c3.3,2.3,6.5,4.6,9.8,6.9c0.8-0.5,1.5-0.9,2-1.4c5.3-3.9,10.6-7.9,15.9-11.9c1.4-1,2.7-2,4.6-0.7
				c2.9,2.1,4.5,1.6,5.3-1.9c0.2-0.8,0.3-1.7,0.3-2.5c-0.3-2.6,0.7-4.6,2.5-6.6c3-3.3,5.5-7,6.3-11.4c1.7-9.1-3-18.8-10.9-22.6
				c-8.4-4.1-18.3-2-24.8,5.2C455.5,470.4,454.8,471.2,454.2,471.9z"/>
		</g>
		<g>
			<path class="st1" d="M276.7,349c-0.5,0.9-1,1.5-1.4,2.2c-9.2,17-18.3,34-27.5,51c-0.7,1.4-1.6,2.9-2.9,3.7
				c-1.1,0.7-2.8,0.9-4.1,0.6c-1.5-0.4-2.2-1.9-2-3.5c0.1-1.1,0.2-2.2,0.6-3.2c8.8-21.9,17.2-43.9,26.6-65.5
				c3.9-8.9,9.7-16.9,14.8-25.6c3.2,1.5,6,2.7,9,4.1c-0.4,1.7-0.6,3.3-1.1,4.9c-2.8,8.1-5.8,16.1-8.6,24.1c-0.3,1-0.3,2.4,0.1,3.4
				c5.8,13.9,13.5,26.6,23.2,38.1c24,28.3,54.7,45.7,90,55.8c0.6,0.2,1.2,0.3,1.8,0.5c0.3,0.1,0.7,0.3,1.3,0.6
				c-10.6,16.9-21.1,33.8-31.7,50.8c-5.5-4.9-10.8-9.5-16-14.1c-9.7-8.6-19.7-17-29.1-26c-14-13.4-25.3-28.9-32.4-47.1
				c-4.4-11.3-7.4-23-8.7-35.1C277.9,362.2,277.3,355.8,276.7,349z"/>
		</g>
		<g>
			<path class="st1" d="M540.6,493.3c-11.1-17.7-22-34.9-32.7-51.9c10-3.4,19.9-6.5,29.5-10.3c24.2-9.6,45.5-23.9,63.1-43.2
				c12.3-13.5,21.8-28.9,28.6-45.8c0.4-1,0.8-2,1.6-2.9c0,5.5,0.3,10.9-0.1,16.4c-0.7,12.6-2.6,25-6.2,37.2
				c-6.4,21.6-18,40.1-34,55.8c-10.1,9.9-20.9,18.9-31.4,28.3c-5.2,4.7-10.4,9.3-15.6,14C542.6,491.6,541.7,492.3,540.6,493.3z"/>
		</g>
		<g>
			<path class="st1" d="M648,383c3.5-1.8,7.5-3.4,11-5.8c9.5-6.5,15.2-16,17.8-27c5.2-22.6,1.4-44-11.4-63.4
				c-5.2-7.9-12.3-13.6-21.5-16.4c-1.5-0.5-3-0.8-5.5-1.4c1.2,2.2,1.8,3.7,2.7,5c6.2,8.7,2.7,17.8-2.8,22
				c-7.9,6.1-17.4,6.1-24.2-1.1c-1.3-1.4-2.6-2.9-4.2-4.8c-4.4,6.6-6.4,13.9-7.7,21.4c-1.3,7.6-1.3,15.3,0.7,22.9
				c-0.3,0.1-0.7,0.3-1,0.4c-1.3-1.4-2.7-2.7-3.8-4.2c-3.2-4.5-4.6-9.6-5-15.1c-1-11.9,2.4-22.5,9.4-32c1.2-1.6,2.8-3.1,4.5-4.2
				c2.9-2,4.6-1.8,7.2,0.6c1.4,1.3,2.6,2.9,3.8,4.4c1.2,1.4,2.3,2.9,3.6,4.2c3,3.1,5.6,3.4,9.2,1.3c3.4-1.9,4.3-4.1,3.1-8.4
				c-0.7-2.6-1.8-5-2.8-7.5c-0.7-1.8-1.7-3.5-2.3-5.4c-1.6-5,0.5-8.8,5.5-10.1c4.8-1.3,9.5-0.3,14,1.4c7.3,2.8,13,7.8,18.2,13.4
				c10.9,11.6,18.1,25.2,20.6,41c2.6,16.9,1.1,33.4-6.6,49c-3.4,6.9-8,12.9-15,16.7C659.9,383.1,653.9,383.7,648,383z"/>
		</g>
		<g>
			<path class="st1" d="M494.3,443c2.7-0.6,5.2-1.2,7.8-1.8c21.5,34.1,42.9,68.1,64.6,102.5c-5.4,1.5-10.5,2.9-15.8,4.4
				C532,513.1,513.2,478.2,494.3,443z"/>
		</g>
		<g>
			<path class="st1" d="M629.1,532.6c5.1-4.9,10.5-8.3,16.9-10.4c13.6-4.3,26.9-9.2,40.4-13.8c1.9-0.6,4-0.7,6.1-1.1
				c0.3,0.9,0.6,1.3,0.5,1.7c-0.8,3.8,1.4,5.9,4.4,7.5c1,0.5,1.9,1.1,2.9,1.5c2.4,0.9,3.1,2.6,1.8,5.7c-0.2,0.6-0.6,1.1-0.9,1.6
				c-2.2,3.5-3.7,7,0.6,10.9c-1.9,0.9-3.3,1.9-4.8,2.3c-4.7,1.5-9.5,3-14.3,4.3c-9.5,2.5-19,5.2-28.6,7.3c-5.1,1.1-10.4,1-15.7,1.5
				c-2.4,0.2-3.9-0.8-4.5-3.2C632.4,543,630.7,537.7,629.1,532.6z M681.3,522.6c0.1-6.5-1.4-7.8-6.7-6.2c-8.3,2.7-16.6,5.4-24.9,8.3
				c-1.8,0.6-3.5,1.8-4.8,3.2c-1.8,1.8-1.5,3.1,0.6,4.4c2,1.3,4,1.3,6.3,0.5c4.7-1.7,9.5-3,14.2-4.6
				C671.2,526.4,676.2,524.4,681.3,522.6z M653.1,546.7c0.6-0.1,1.2,0,1.8-0.2c9.5-2.6,19-5.2,28.5-8c2.5-0.7,3.3-2.5,2.4-5.1
				c-0.9-2.7-2.2-3.4-5-2.6c-4.9,1.3-9.9,2.6-14.8,4c-4.9,1.4-9.8,2.8-14.7,4.5c-2.6,0.9-3.7,3-3.1,4.8
				C649.1,546.5,651.2,546.5,653.1,546.7z"/>
		</g>
		<g>
			<path class="st1" d="M357.6,541.1c-3.1-0.6-6-1.5-8.9-1.6c-2.9-0.1-5.8,0.6-9.1,1c0.6-1.1,1-2,1.5-2.8
				c19.6-31.3,39.1-62.6,58.7-94c1.1-1.8,2.2-2.7,4.4-1.7c1.4,0.6,3.1,0.7,5,1.2C392,475.8,374.9,508.3,357.6,541.1z"/>
		</g>
		<g>
			<path class="st1" d="M295.4,277.5c1,3,3.2,4.2,6,4.6c2,0.3,3.1,1.6,3.7,3.2c1.4,4.3,1.9,8.8-1.4,12.4c-2.9,3.1-6.4,5.6-9.7,8.3
				c-0.3,0.3-1,0.5-1.3,0.4c-3.4-1.6-7.9-1.9-9.6-6c-1.7-4.3-1.3-8.5,1.9-12C288.3,284.8,291.8,281.3,295.4,277.5z"/>
		</g>
		<g>
			<path class="st1" d="M610.3,321.3c0.1-7.8,6.6-11.7,11.3-11.5c7.1,0.2,11.2,4.9,11.5,10.9c0.3,6.3-4.6,11.4-11,11.7
				c-1.2,0-2.4,0.3-3.6,0.6c-3.3,0.7-4.8-0.2-5.4-3.5c-0.2-0.9-0.6-1.8-0.9-2.7C611.5,324.9,610.9,323.1,610.3,321.3z"/>
		</g>
		<g>
			<path class="st1" d="M575.8,569.9c-4.1,1.5-7.9,2.8-11.9,4.2c-2.8-7.3-5.2-14.3-6.5-22.1c4-1.2,7.8-2.3,12-3.6
				C571.6,555.8,573.7,562.7,575.8,569.9z"/>
		</g>
		<g>
			<path class="st1" d="M578,568.4c-2.1-6.7-4.6-13.4-5.7-20.6c3.5-0.9,6.7-1.9,9.9-2.5c0.8-0.2,2.4,0.6,2.6,1.2
				c2,6.1,3.8,12.3,5.6,18.3C586,567.2,581.2,568.6,578,568.4z"/>
		</g>
		<g>
			<path class="st1" d="M586.2,544c4.4-1.3,8.2-2.4,12.4-3.7c2.1,7,4.2,13.6,6.3,20.6c-4.3,1.4-8.1,2.6-12.4,3.9
				C590.4,557.8,588.4,551.2,586.2,544z"/>
		</g>
		<g>
			<path class="st1" d="M601,539.8c4.1-1.2,7.9-2.4,12-3.7c0.6,1.5,1.1,2.9,1.5,4.2c1.3,4.3,2.7,8.6,4,12.9c0.8,2.8,0.3,3.5-2.3,4.3
				c-2.1,0.6-4.1,1.3-6.2,2.1c-1.8,0.6-3,0.3-3.6-1.7C604.6,551.9,602.8,546,601,539.8z"/>
		</g>
		<g>
			<path class="st1" d="M561.6,574.7c-3.3,1.1-6.3,2.1-9.8,3.2c-2.3-7.4-4.5-14.6-6.7-22.1c3.2-1,6.2-1.9,9.6-2.9
				C557.9,559.8,559.4,567,561.6,574.7z"/>
		</g>
		<g>
			<path class="st1" d="M549.7,578.3c-3.1,1-6,1.9-9.3,2.9c-2.3-7.6-4.4-14.7-6.6-22.1c3.3-1,6.1-1.8,9.2-2.7
				C545.9,563.3,547.7,570.5,549.7,578.3z"/>
		</g>
		<g>
			<path class="st1" d="M615.2,535.8c3.9-1.1,7-2,10.7-3.1c1.9,6.3,3.6,12.1,5.3,17.9c0.4,1.3-0.3,2.1-1.5,2.5
				c-2.6,0.8-5.1,1.5-8.3,2.4C619.4,549.1,617.4,542.8,615.2,535.8z"/>
		</g>
		<g>
			<path class="st1" d="M527.1,585.2c-3.1,1.1-5.8,2-8.7,3c-2.4-7.7-4.6-15.1-7-22.9c2.9-0.9,5.6-1.7,8.9-2.7
				C522.6,570.2,524.8,577.5,527.1,585.2z"/>
		</g>
		<g>
			<path class="st1" d="M538.4,581.9c-3,0.9-5.8,1.7-9,2.7c-2.3-7.6-4.4-14.9-6.7-22.5c3.1-0.9,5.8-1.7,8.7-2.6
				C533.8,567,536,574.2,538.4,581.9z"/>
		</g>
		<g>
			<path class="st1" d="M456.2,607.5c3.8-10.6,0.2-18-8.5-24.3c3.9-1.2,6.8-2,10.1-3c1.3,3.8,2.4,7.2,3.5,10.7
				c1.1,3.6,2.2,7.2,3.2,10.9c0.8,2.9,0.5,3.3-2.3,4.3C460.7,606.5,459,606.8,456.2,607.5z"/>
		</g>
		<g>
			<path class="st1" d="M658.6,355c-0.8-1.1-1.5-2.2-2.4-3.1c-2.4-2.8-2.6-4.8-1.1-8c0.5-1,0.6-2.2,0.8-3.2c1.3,0.1,2.9,0.2,4.4,0.2
				c5-0.2,8.4,4.9,6.1,9.3c-0.4,0.9-1.1,1.6-1.4,2.5c-0.5,1.4-1.4,1.8-2.8,1.7C661.2,354.3,660,354.7,658.6,355z"/>
		</g>
		<g>
			<path class="st1" d="M460.3,580.1c1.8-0.7,3.2-1.2,4.7-1.7c0.4,0.7,0.8,1.2,1,1.9c2,6.6,4,13.2,6,19.9c0.6,1.9-0.2,2.8-2,3.6
				c-1.9,0.8-2.9,0-3.3-1.6C464.6,594.9,462.5,587.6,460.3,580.1z"/>
		</g>
		<g>
			<path class="st1" d="M645,357.1c2.4,2.2,4.6,3.8,6.1,6.2c1.6,2.5,1.5,6.1-0.3,8.2c-2,2.2-5.3,2.8-8.1,1.4
				c-3.7-1.9-4.7-6.8-1.9-10C642.4,361.2,645,360.3,645,357.1z"/>
		</g>
		<g>
			<path class="st1" d="M501.7,593.3c-2.1,0.6-3.6,1-5.4,1.5c-0.9-2.8-1.8-5.2-2.5-7.8c-1-3.4-2.1-6.7-3-10.1
				c-0.5-1.7-0.7-3.5-1.1-5.6c1.8-0.5,3.2-0.9,5-1.4C497,577.8,499.3,585.3,501.7,593.3z"/>
		</g>
		<g>
			<path class="st1" d="M474.8,575.4c1.9-0.4,3.4-0.7,5.2-1c2.4,8,4.7,15.7,7.1,23.6c-1.6,0.7-2.9,1.2-4.6,1.9
				C479.2,592.1,477.2,584.1,474.8,575.4z"/>
		</g>
		<g>
			<path class="st1" d="M474.8,601.7c-2.4-8-4.8-15.8-7.3-24c1.8-0.4,3.4-0.8,5.1-1.2c2.2,7,4.2,13.6,6.2,20.2
				C479.9,600.2,479.2,601.1,474.8,601.7z"/>
		</g>
		<g>
			<path class="st1" d="M508.6,591.2c-1.8,0.5-3.3,0.9-4.9,1.4c-2.4-7.8-4.6-15.2-7-22.9c0.8-0.4,1.5-0.7,2.3-1c2-0.9,3.2-0.2,3.8,2
				c1.6,5.9,3.3,11.7,5,17.6C507.9,588.9,508.2,589.8,508.6,591.2z"/>
		</g>
		<g>
			<path class="st1" d="M482.1,573.5c1.7-0.5,3.2-1,5.2-1.6c2.2,7.6,4.3,14.8,6.2,22c0.6,2.3,0.1,2.6-4,3.3
				C487.1,589.6,484.7,581.9,482.1,573.5z"/>
		</g>
		<g>
			<path class="st1" d="M515.9,588.8c-1.8,0.6-3.1,1-5,1.6c-2.3-7.7-4.5-15.1-6.9-22.8c1.9-0.5,3.2-0.9,5-1.4
				C511.3,573.7,513.5,581,515.9,588.8z"/>
		</g>
		<g>
			<path class="st1" d="M448.2,579.8c-7.4-2.4-14.3-1.8-20.7,2.6c-4.1,2.8-6.4,7.1-7.8,11.6c-2.3,7.1,0.1,18.1,9.5,23.8
				c5.2,3.1,10.6,3.5,16.3,2.2c5.7-1.3,9.6-5,12.8-9.7c-2.1,8-15,13.5-23.8,10.9c-15.1-4.5-19.4-20-14.9-30.5
				C424.7,578.7,439.9,574.7,448.2,579.8z"/>
		</g>
		<g>
			<path class="st1" d="M668.1,509.1c3.3-0.7,6.3-1.4,9.7-2.1c0.8,0.9,1.4,1.9-0.1,3C675.2,511.9,671.3,511.6,668.1,509.1z"/>
		</g>
		<g>
			<path class="st1" d="M655.2,513.6c3-0.6,5.4-1.3,7.9-1.6c0.6-0.1,1.3,0.7,2,1.1c-0.3,0.6-0.5,1.4-1,1.7
				C661.7,516.6,658.4,516.3,655.2,513.6z"/>
		</g>
		<g>
			<path class="st1" d="M650.4,516.1c0.1,0.1,0.8,0.8,1.6,1.4c-0.8,0.6-1.5,1.4-2.3,1.8c-2.6,1.4-5.1,1.6-7.8-0.7
				C644.6,517.9,646.9,517.1,650.4,516.1z"/>
		</g>
		<g>
			<path class="st1" d="M675.8,546.8c-1,1.7-6.5,4.5-8.8,4.8C667.5,547.4,668.7,547.5,675.8,546.8z"/>
		</g>
		<g>
			<path class="st1" d="M662.5,551.2c-0.7,0.6-1.8,2-2.1,1.8c-3.2-1.4-4.5,1.6-6.7,2.7c-1.7-0.8-0.7-1.8-0.2-2.6
				c2.1-3.1,5.5-2.2,8.4-2.9C662.1,550.5,662.3,550.8,662.5,551.2z"/>
		</g>
		<g>
			<path class="st1" d="M680.3,548.7c0.8-4.2,4.2-6.1,9.7-5.2c-1.2,0.9-1.9,1.9-2.7,2c-2.3,0.1-3.9,1.1-5.2,2.8
				C681.7,548.6,680.9,548.6,680.3,548.7z"/>
		</g>
		<g>
			<path class="st1" d="M675.3,523c-0.5-1.6-0.9-3-1.4-4.5c2-0.7,3.3-0.9,3.9,1.4C678.3,521.8,678.2,522.9,675.3,523z"/>
		</g>
		<g>
			<path class="st1" d="M663.1,527.6c-2.3-3.5-2.3-4,0-5.9c1.5,1,2,2.6,1.9,4.3C665,526.5,663.8,527,663.1,527.6z"/>
		</g>
		<g>
			<path class="st1" d="M649,531.7c-1.4-4-1.4-4,1-5.3C652.2,530.1,652.2,530.4,649,531.7z"/>
		</g>
		<g>
			<path class="st1" d="M679.8,537.7c-0.4-1.6-0.8-2.9-1.2-4.3c3.1-1.1,3.1-1.1,4.1,3.2c-0.5,0.3-0.9,0.7-1.4,0.9
				C680.9,537.7,680.5,537.7,679.8,537.7z"/>
		</g>
		<g>
			<path class="st1" d="M665.3,536.6c3.1-0.4,3.1-0.4,4,3.6c-0.4,0.3-0.9,0.6-1.4,0.9c-0.3,0.1-0.7,0.1-1.3,0.2
				C666.2,539.8,665.8,538.3,665.3,536.6z"/>
		</g>
		<g>
			<path class="st1" d="M654.6,539.9c0.4,1.3,0.8,2.3,0.9,3.3c0,0.5-0.5,1.4-1,1.6c-0.4,0.2-1.4-0.3-1.7-0.7
				C651.3,542.3,651.8,540.9,654.6,539.9z"/>
		</g>
	</g>
</g>
</svg>
