<?xml version="1.0" encoding="utf-8"?>
<!-- Generator: Adobe Illustrator 26.5.0, SVG Export Plug-In . SVG Version: 6.00 Build 0)  -->
<svg version="1.1" id="Layer_1" xmlns="http://www.w3.org/2000/svg" xmlns:xlink="http://www.w3.org/1999/xlink" x="0px" y="0px"
	 viewBox="0 0 1000 1113.9" style="enable-background:new 0 0 1000 1113.9;" xml:space="preserve">
<style type="text/css">
	.st0{fill:#274380;}
	.st1{fill:#FFFFFF;}
</style>
<g>
	<g>
		<g>
			<path class="st1" d="M17.1,837.1c9.7,0,14.7,5.8,14.7,16v2h-9.5v-2.6c0-4.5-1.8-6.3-5-6.3c-3.2,0-5,1.7-5,6.3
				c0,4.6,2,8.1,8.6,13.8c8.4,7.4,11,12.6,11,19.9c0,10.2-5.1,16-14.9,16c-9.8,0-14.9-5.8-14.9-16v-3.9h9.5v4.6c0,4.5,2,6.2,5.2,6.2
				s5.2-1.6,5.2-6.2c0-4.6-2-8.1-8.6-13.8c-8.4-7.4-11-12.6-11-19.9C2.4,842.9,7.4,837.1,17.1,837.1z"/>
			<path class="st1" d="M47.7,864.7h13.7v9.1H47.7v18.7H65v9.1H37.7v-63.7H65v9.1H47.7V864.7z"/>
			<path class="st1" d="M100.2,877.8v8.5c0,10.2-5.1,16-14.9,16c-9.8,0-14.9-5.8-14.9-16v-33.1c0-10.2,5.1-16,14.9-16
				c9.8,0,14.9,5.8,14.9,16v6.2h-9.5v-6.8c0-4.5-2-6.3-5.2-6.3s-5.2,1.7-5.2,6.3v34.4c0,4.5,2,6.2,5.2,6.2s5.2-1.6,5.2-6.2v-9.1
				H100.2z"/>
			<path class="st1" d="M127.2,901.5c-0.5-1.6-0.9-2.6-0.9-7.8v-10c0-5.9-2-8.1-6.6-8.1h-3.5v25.9h-10v-63.7h15.1
				c10.4,0,14.8,4.8,14.8,14.7v5c0,6.6-2.1,10.7-6.6,12.8v0.2c5,2.1,6.6,6.8,6.6,13.5v9.8c0,3.1,0.1,5.4,1.1,7.7H127.2z
				 M116.3,846.9v19.6h3.9c3.7,0,6-1.6,6-6.7v-6.3c0-4.5-1.5-6.6-5.1-6.6H116.3z"/>
			<path class="st1" d="M152.9,864.7h13.7v9.1h-13.7v18.7h17.3v9.1h-27.3v-63.7h27.3v9.1h-17.3V864.7z"/>
			<path class="st1" d="M173.4,837.8h30.9v9.1h-10.5v54.6h-10v-54.6h-10.5V837.8z"/>
			<path class="st1" d="M237.7,901.5h-10.1l-1.7-11.6h-12.3l-1.7,11.6h-9.2l10.2-63.7h14.7L237.7,901.5z M214.9,881.3h9.6l-4.7-32.2
				h-0.2L214.9,881.3z"/>
			<path class="st1" d="M263.3,901.5c-0.5-1.6-0.9-2.6-0.9-7.8v-10c0-5.9-2-8.1-6.6-8.1h-3.5v25.9h-10v-63.7h15.1
				c10.4,0,14.8,4.8,14.8,14.7v5c0,6.6-2.1,10.7-6.6,12.8v0.2c5,2.1,6.6,6.8,6.6,13.5v9.8c0,3.1,0.1,5.4,1.1,7.7H263.3z
				 M252.3,846.9v19.6h3.9c3.7,0,6-1.6,6-6.7v-6.3c0-4.5-1.5-6.6-5.1-6.6H252.3z"/>
			<path class="st1" d="M278.9,837.8h10v63.7h-10V837.8z"/>
			<path class="st1" d="M328.6,901.5h-10.1l-1.7-11.6h-12.3l-1.7,11.6h-9.2l10.2-63.7h14.7L328.6,901.5z M305.8,881.3h9.6l-4.7-32.2
				h-0.2L305.8,881.3z"/>
			<path class="st1" d="M347.3,837.8h15.8c10,0,14.9,5.6,14.9,15.7v32.2c0,10.2-4.9,15.7-14.9,15.7h-15.8V837.8z M357.4,846.9v45.5
				h5.6c3.2,0,5.1-1.6,5.1-6.2v-33.1c0-4.5-1.9-6.2-5.1-6.2H357.4z"/>
			<path class="st1" d="M394.5,864.7h13.7v9.1h-13.7v18.7h17.3v9.1h-27.3v-63.7h27.3v9.1h-17.3V864.7z"/>
			<path class="st1" d="M461.1,877.8v8.5c0,10.2-5.1,16-14.9,16c-9.8,0-14.9-5.8-14.9-16v-33.1c0-10.2,5.1-16,14.9-16
				c9.8,0,14.9,5.8,14.9,16v6.2h-9.5v-6.8c0-4.5-2-6.3-5.2-6.3s-5.2,1.7-5.2,6.3v34.4c0,4.5,2,6.2,5.2,6.2s5.2-1.6,5.2-6.2v-9.1
				H461.1z"/>
			<path class="st1" d="M476.7,837.8V887c0,4.5,2,6.2,5.2,6.2s5.2-1.6,5.2-6.2v-49.1h9.5v48.5c0,10.2-5.1,16-14.9,16
				c-9.8,0-14.9-5.8-14.9-16v-48.5H476.7z"/>
			<path class="st1" d="M503.4,837.8h10v54.6h16.5v9.1h-26.5V837.8z"/>
			<path class="st1" d="M526.8,837.8h30.9v9.1h-10.5v54.6h-10v-54.6h-10.5V837.8z"/>
			<path class="st1" d="M571.7,837.8V887c0,4.5,2,6.2,5.2,6.2s5.2-1.6,5.2-6.2v-49.1h9.5v48.5c0,10.2-5.1,16-14.9,16
				c-9.8,0-14.9-5.8-14.9-16v-48.5H571.7z"/>
			<path class="st1" d="M619.3,901.5c-0.5-1.6-0.9-2.6-0.9-7.8v-10c0-5.9-2-8.1-6.6-8.1h-3.5v25.9h-10v-63.7h15.1
				c10.4,0,14.8,4.8,14.8,14.7v5c0,6.6-2.1,10.7-6.6,12.8v0.2c5,2.1,6.6,6.8,6.6,13.5v9.8c0,3.1,0.1,5.4,1.1,7.7H619.3z
				 M608.3,846.9v19.6h3.9c3.7,0,6-1.6,6-6.7v-6.3c0-4.5-1.5-6.6-5.1-6.6H608.3z"/>
			<path class="st1" d="M667.3,901.5h-10.1l-1.7-11.6h-12.3l-1.7,11.6h-9.2l10.2-63.7h14.7L667.3,901.5z M644.5,881.3h9.6l-4.7-32.2
				h-0.2L644.5,881.3z"/>
			<path class="st1" d="M696.1,864.7h13.7v9.1h-13.7v18.7h17.3v9.1h-27.3v-63.7h27.3v9.1h-17.3V864.7z"/>
			<path class="st1" d="M730.7,837.8h30.9v9.1h-10.5v54.6h-10v-54.6h-10.5V837.8z"/>
			<path class="st1" d="M775.6,837.8V887c0,4.5,2,6.2,5.2,6.2s5.2-1.6,5.2-6.2v-49.1h9.5v48.5c0,10.2-5.1,16-14.9,16
				c-9.8,0-14.9-5.8-14.9-16v-48.5H775.6z"/>
			<path class="st1" d="M823.2,901.5c-0.5-1.6-0.9-2.6-0.9-7.8v-10c0-5.9-2-8.1-6.6-8.1h-3.5v25.9h-10v-63.7h15.1
				c10.4,0,14.8,4.8,14.8,14.7v5c0,6.6-2.1,10.7-6.6,12.8v0.2c5,2.1,6.6,6.8,6.6,13.5v9.8c0,3.1,0.1,5.4,1.1,7.7H823.2z
				 M812.3,846.9v19.6h3.9c3.7,0,6-1.6,6-6.7v-6.3c0-4.5-1.5-6.6-5.1-6.6H812.3z"/>
			<path class="st1" d="M838.8,837.8h10v63.7h-10V837.8z"/>
			<path class="st1" d="M869.6,837.1c9.7,0,14.7,5.8,14.7,16v2h-9.5v-2.6c0-4.5-1.8-6.3-5-6.3s-5,1.7-5,6.3c0,4.6,2,8.1,8.6,13.8
				c8.4,7.4,11,12.6,11,19.9c0,10.2-5.1,16-14.9,16c-9.8,0-14.9-5.8-14.9-16v-3.9h9.5v4.6c0,4.5,2,6.2,5.2,6.2
				c3.2,0,5.2-1.6,5.2-6.2c0-4.6-2-8.1-8.6-13.8c-8.4-7.4-11-12.6-11-19.9C854.9,842.9,859.9,837.1,869.6,837.1z"/>
			<path class="st1" d="M911.3,883h0.2l6.7-45.2h13.9v63.7h-9.5v-45.7h-0.2l-6.7,45.7h-9.5l-7.3-45h-0.2v45h-8.7v-63.7H904
				L911.3,883z"/>
			<path class="st1" d="M938.6,853.1c0-10.2,5.4-16,15.2-16s15.2,5.8,15.2,16v33.1c0,10.2-5.4,16-15.2,16s-15.2-5.8-15.2-16V853.1z
				 M948.6,886.9c0,4.5,2,6.3,5.2,6.3c3.2,0,5.2-1.7,5.2-6.3v-34.4c0-4.5-2-6.3-5.2-6.3c-3.2,0-5.2,1.7-5.2,6.3V886.9z"/>
		</g>
		<g>
			<path class="st1" d="M76.5,966.3v19c0,23.4-11.3,36.2-34.3,36.2H31.4v55h-23V930.1h33.9C65.2,930.1,76.5,942.9,76.5,966.3z
				 M31.4,951.1v49.6h10.9c7.3,0,11.3-3.3,11.3-13.8v-22c0-10.5-4-13.8-11.3-13.8H31.4z"/>
			<path class="st1" d="M87.2,930.1h23v125.5H148v20.9H87.2V930.1z"/>
			<path class="st1" d="M232.5,1076.5h-23.2l-4-26.6h-28.2l-4,26.6H152l23.4-146.4h33.7L232.5,1076.5z M180,1030.1h22.2l-10.9-74
				h-0.4L180,1030.1z"/>
			<path class="st1" d="M264.1,970.5h-0.4v106H243V930.1h28.9l23.2,87.6h0.4v-87.6h20.5v146.4h-23.6L264.1,970.5z"/>
			<path class="st1" d="M406.9,1076.5h-23.2l-4-26.6h-28.2l-4,26.6h-21.1l23.4-146.4h33.7L406.9,1076.5z M354.4,1030.1h22.2
				l-10.9-74h-0.4L354.4,1030.1z"/>
			<path class="st1" d="M417.6,930.1h23v125.5h37.8v20.9h-60.8V930.1z"/>
			<path class="st1" d="M471.3,930.1h71.1v20.9h-24v125.5h-23V951.1h-24V930.1z"/>
			<path class="st1" d="M552.4,930.1h23v146.4h-23V930.1z"/>
			<path class="st1" d="M613.1,970.5h-0.4v106h-20.7V930.1h28.9l23.2,87.6h0.4v-87.6h20.5v146.4h-23.6L613.1,970.5z"/>
			<path class="st1" d="M755.9,1076.5h-23.2l-4-26.6h-28.2l-4,26.6h-21.1l23.4-146.4h33.7L755.9,1076.5z M703.4,1030.1h22.2
				l-10.9-74h-0.4L703.4,1030.1z"/>
			<path class="st1" d="M763.4,992.9h41.8v20.9h-41.8V992.9z"/>
			<path class="st1" d="M855.4,995h32.2v46.4c0,23.4-11.7,36.8-34.3,36.8c-22.6,0-34.3-13.4-34.3-36.8v-76.1
				c0-23.4,11.7-36.8,34.3-36.8c22.6,0,34.3,13.4,34.3,36.8v14.2h-21.7v-15.7c0-10.5-4.6-14.4-11.9-14.4c-7.3,0-11.9,4-11.9,14.4v79
				c0,10.5,4.6,14.2,11.9,14.2c7.3,0,11.9-3.8,11.9-14.2v-27h-10.5V995z"/>
			<path class="st1" d="M900.6,965.3c0-23.4,12.3-36.8,34.9-36.8c22.6,0,34.9,13.4,34.9,36.8v76.1c0,23.4-12.3,36.8-34.9,36.8
				c-22.6,0-34.9-13.4-34.9-36.8V965.3z M923.6,1042.8c0,10.5,4.6,14.4,11.9,14.4c7.3,0,11.9-4,11.9-14.4v-79
				c0-10.5-4.6-14.4-11.9-14.4c-7.3,0-11.9,4-11.9,14.4V1042.8z"/>
		</g>
	</g>
	<g>
		<g>
			<path class="st1" d="M776.2,176c-0.4,0.8-0.7,1.3-1,1.9c-3.8,6.2-7.7,12.4-11.5,18.6c-11.1,18.1-21.2,36.7-29.5,56.2
				c-6.2,14.6-9.6,29.9-10.8,45.7c-1.2,15.1-0.7,30.2,1,45.2c2.9,25.4,7.5,50.5,12.5,75.6c3.8,18.9,8,37.7,11.8,56.6
				c3,14.7,4.8,29.6,5.4,44.6c0.6,13.8-0.1,27.5-2.3,41.1c-6.1,37.6-24.2,68-54.6,91c-16.4,12.4-34.6,21.5-53.6,29.1
				c-20.5,8.2-41.7,14.5-62.9,20.8c-14.4,4.3-28.7,8.8-42.9,13.6c-15.4,5.2-29.9,12.4-43.1,22.1c-1.8,1.3-3.8,2.6-5.6,3.8
				c-0.1,0.1-0.3,0.1-0.7,0.2c-1.6-1.1-3.4-2.2-5.1-3.5c-14.6-10.9-30.9-18.6-48.1-24.2c-18.3-5.9-36.8-11.4-55.3-17
				c-19.7-6-39.2-12.4-58-20.8c-19.3-8.6-37.4-19.2-53.1-33.5c-21.3-19.4-35-43.3-41.4-71.3c-4.2-18.4-5.1-37.1-4-55.9
				c1.2-21,5.2-41.5,9.8-61.9c5.9-26.7,11.5-53.5,15.6-80.6c2-13.1,3.9-26.3,5.1-39.5c2.2-23.4,0.9-46.5-6.2-69.1
				c-4-12.9-9.9-25-16.2-36.9c-5.5-10.4-11.3-20.8-17.1-31.1c-4.1-7.1-8.5-14-12.7-21c-0.5-0.8-1-1.7-1.6-2.7
				c1.4-0.8,2.6-1.6,3.8-2.3c35.6-20.8,73.5-36.3,113.1-47.7c23.4-6.8,47.2-12.1,71.3-15.7c14.4-2.1,28.9-3.7,43.4-5.1
				c23.8-2.4,47.6-2.8,71.5-2.1c13.9,0.4,27.8,1.4,41.7,2.5c21.7,1.7,43.2,5,64.5,9.4c57.9,11.8,112.9,31.5,163.7,62
				C774.2,174.8,775,175.3,776.2,176z M234.2,184c1.8,3,3.4,5.8,5.1,8.6c8.7,13.8,16.9,27.7,23.5,42.6c8.4,18.8,13.9,38.3,15.6,58.8
				c1.5,18.6,0,37.1-2.3,55.5c-1.2,9.5-2.6,18.9-4.1,28.3c-2.1,12.9-4.2,25.8-6.8,38.6c-4.4,21.9-9.2,43.8-13.7,65.7
				c-2.5,12.2-4.1,24.6-4.6,37c-0.6,14.4-0.2,28.7,2.6,42.9c2.7,13.3,7.1,26,14.1,37.8c9.7,16.5,23.1,29.3,39,39.8
				c16.8,11.1,35,19.2,54,25.5c21.7,7.2,43.6,13.6,65.4,20.3c15.5,4.8,31,9.7,45.7,16.7c7.3,3.5,14.3,7.5,21.6,11.4
				c11.8-7.8,25-13.8,38.6-18.9c17-6.3,34.4-11.2,51.8-16.3c20.6-6.2,41.3-12.4,61.2-20.8c18.9-8,36.8-17.8,52-31.8
				c10.4-9.6,18.9-20.6,25.1-33.3c9.1-18.6,12.6-38.5,13-59c0.1-7.8-0.4-15.6-1-23.4c-0.7-7.9-1.7-15.7-3.1-23.5
				c-1.4-8.4-3.3-16.7-5.1-25c-3.4-16.4-6.9-32.8-10.2-49.2c-1.9-9.7-3.5-19.4-5.1-29.2c-1.3-7.9-2.5-15.8-3.7-23.7
				c-0.9-6.5-1.7-13-2.3-19.5c-0.6-6-0.9-12-1.3-18c-1.1-15.4-0.2-30.7,2.6-45.9c3-16.6,8.7-32.3,16.1-47.5
				c6-12.4,13.1-24.3,20.5-36c1.2-1.9,2.1-3.9,3.4-6.2c-4.6-2.6-8.9-5.2-13.3-7.5c-20.3-10.1-41.3-18.5-62.8-25.5
				c-20.2-6.6-40.7-12.1-61.7-16.1c-9.5-1.8-19.1-3.4-28.6-4.9c-7.8-1.2-15.6-2.3-23.5-3.2c-7-0.8-14.1-1.3-21.2-1.8
				c-9.4-0.6-18.7-1.4-28.1-1.5c-20.5-0.3-41-0.4-61.4,1.5c-9.4,0.9-18.8,1.6-28.2,2.7c-10.5,1.3-21,2.7-31.5,4.5
				c-15,2.6-29.8,5.8-44.5,9.7c-34.6,9.1-68.1,21.3-99.8,37.9C236.1,182.9,235.2,183.5,234.2,184z"/>
		</g>
		<g>
			<path class="st1" d="M193.8,162.3c-11.6-18.7-23-37.2-34.6-55.8c39.3-22.7,80.7-40.1,124.1-53.2c2.8,5.7,5.5,11.3,8.4,17.2
				c39.9-12.1,80.5-20.1,122.1-24.5c0-6,0-12,0-18.3c49.9-4.9,99.6-4.7,149.5,0.6c0,6.1,0,12.1,0,18.4
				c41.7,4.8,82.4,13.2,122.4,25.9c1.5-3,2.8-5.8,4.2-8.6c1.4-2.8,2.7-5.5,4.2-8.6c43.2,13.5,84.3,31.4,123.5,54.7
				c-12,18.4-23.8,36.7-35.8,55.1c-0.8-0.4-1.4-0.7-2-1.1c-36.8-22.3-76-38.9-117.2-51.2c-24.3-7.3-49.1-13-74.2-16.8
				c-15.5-2.4-31-4.1-46.6-5.7c-21.6-2.2-43.3-3-64.9-2.4c-17,0.4-34,1.1-51,2.6C364,96.2,304,110.4,246.6,135.3
				c-17.3,7.5-34.1,16-50.3,25.6C195.6,161.3,194.9,161.7,193.8,162.3z"/>
		</g>
		<g>
			<path class="st1" d="M414.2,21.8c-0.1-0.9-0.1-1.5-0.1-2c0-5.4,0-10.7,0-16.5c49.8-4.5,99.5-4.3,149.3,0.6c0,6.2,0,12.1,0,18.5
				c-24.8-2.4-49.6-3.9-74.4-4C464,18.2,439.2,19.5,414.2,21.8z"/>
		</g>
		<g>
			<path class="st1" d="M831.5,86.7c-3.5,6-6.9,11.7-10.4,17.7c-39.2-23.1-80.6-40.9-124.2-54.6c2.9-5.9,5.6-11.6,8.4-17.4
				C749.4,46,791.4,63.8,831.5,86.7z"/>
		</g>
		<g>
			<path class="st1" d="M145.6,83.2c40.4-22.5,82.6-39.7,126.7-52.9c2.4,4.9,4.6,9.5,6.9,14.2c0.5,1,0.9,2,1.5,3.3
				c-43.5,13.2-85.1,30.5-124.7,53.1C152.5,94.9,149.1,89.2,145.6,83.2z"/>
		</g>
		<g>
			<path class="st1" d="M512.7,420.3c-1.2,0.5-2.3,1.1-3.3,1.4c-7.1,2-14.3,4-21.4,6c-1.3,0.4-2.4,0.3-3.6-0.5
				c-5-3.6-10.6-4.7-16.7-3.5c-7.2,1.4-12.4,5.6-15.3,12.2c-3.7,8.4-2.1,18.1,4.6,24.6c4.6,4.6,10.2,6.8,16.5,6.2
				c7.3-0.6,13.4-3.8,17.1-10.5c1-1.9,1.6-4.2,3.1-5.6c1.4-1.3,3.8-1.6,5.7-2.3c6-1.9,12.1-3.7,18.2-5.6c0.6-0.2,1.2-0.2,1.8-0.3
				c2.2,8.2,1.8,16.4-1,24.2c-2.9,8-8.8,13.3-16.9,15.7c-3.8,1.1-7.8,1.4-11.8,1.8c-5.8,0.5-11.6,0.6-17.4,1.2
				c-4,0.4-7.3,2.2-10,5.4c-6.5,7.8-13.3,15.4-21.4,21.7c-7.8,5.9-16.4,9-26.1,8.3c-3-0.2-6-1.2-8.9-2.1c-1.8-0.5-3.7-1.1-5.3-2.1
				c-6.2-3.7-11.3-8.6-15.1-14.7c-6.7-10.9-11.7-22.5-14.2-35.1c-1.3-6.2-2.4-12.4-2.6-18.8c-0.1-4.3-0.2-8.5,0.6-12.7
				c2.5-13.2,10.7-21.7,22.6-26.9c9.6-4.1,19.5-4.4,29.6-2c4.9,1.2,9.8,2.7,14.7,3.7c3.7,0.7,7.6,1.1,11.3,1.1c2,0,4.1-0.9,5.9-1.9
				c3.6-2.1,7.1-4.4,10.6-6.7c4.9-3.2,10.1-5.6,16-6.5c7.8-1.2,14.8,0.4,20.8,5.7c4.5,4,8.1,8.6,10,14.3
				C511.2,417.5,511.9,418.8,512.7,420.3z M404.8,435.1c0.1,0.5,0.1,0.9,0.3,1.3c2.3,7.9,4.5,15.8,6.9,23.7c2.7,9,5.5,18,8.3,26.9
				c0.7,2.3,1,2.5,3.3,1.9c5.1-1.2,5.4-1.8,3.8-7.1c-3.7-12.5-7.4-24.9-11.1-37.4c-1-3.4-2.1-6.7-3.2-10.1c-0.3-1-0.7-1.9-2-1.7
				C408.9,433.1,406.7,433.5,404.8,435.1z"/>
		</g>
		<g>
			<path class="st1" d="M410.3,523.8c12.4,1.8,23.2-1.2,32.8-8.6c6.4-5,12.3-10.5,17.3-16.9c1.7-2.2,3.6-4.3,5.6-6.3
				c2.1-2.1,5-3,7.9-3.2c6.3-0.4,12.5-0.7,18.8-1.1c7.7-0.5,14.8-2.6,20.8-7.8c5.7-4.9,8.6-11.3,9.9-18.6c1.1-6,0.7-11.9-0.1-17.9
				c0-0.3,0-0.5,0-1.1c3.9-1.2,7.8-2.3,11.8-3.5c1.8,6.8,3.3,13.4,5.1,20c2.8,10,6,20,8.5,30.1c2,8.3,3.7,16.8,4.8,25.4
				c1.4,11.3,2.5,22.6,3.1,33.9c0.6,10.3,0.5,20.6,0.4,30.8c0,6.9-0.3,13.8-0.8,20.7c-0.8,11.2-1.8,22.5-4.9,33.3
				c-0.7,2.2-1.6,4.5-2.8,6.4c-1.7,2.9-4.1,2.9-5.6-0.1c-1.7-3.6-3.2-7.3-4.1-11.2c-2.6-11.1-4.9-22.3-7.2-33.5
				c-3.9-19-7.9-38-14.8-56.2c-3.6-9.6-7.9-18.8-14.5-26.7c-4.9-5.8-10.7-10.1-18.4-11.3c-2.6-0.4-5,0.3-7.4,1.1
				c-7,2.4-12,7.3-16.3,13.1c-6.3,8.6-10.4,18.3-13.8,28.3c-5,14.2-8.3,28.9-11.5,43.6c-3.1,14.5-6.1,29.1-9.3,43.6
				c-0.6,2.7-1.8,5.3-2.8,7.9c-0.3,0.7-0.8,1.4-1.3,2.1c-1.4,1.7-3,1.8-4.4,0.1c-1-1.2-2-2.7-2.4-4.2c-1.4-5.3-3-10.7-3.8-16.1
				c-3.5-23.3-3.6-46.8-2.7-70.3c0.3-7.8,1-15.6,1.6-23.4C409.9,525.6,410.1,524.8,410.3,523.8z"/>
		</g>
		<g>
			<path class="st1" d="M482.4,319.9c-22.7-0.2-41.4-18-41.4-41.5c0-23,18.1-41.4,41.5-41.4c23.5,0,41.4,18.6,41.4,41.5
				C523.8,301.9,505.2,319.7,482.4,319.9z"/>
		</g>
		<g>
			<path class="st1" d="M530.8,414.1c-4.1,1.3-8.2,2.5-12.2,3.8c-2.2,0.7-3,0.6-3.9-1.6c-1.7-4.2-3.7-8.3-6.6-11.8
				c-3.8-4.7-8.2-8.6-13.9-10.6c-6.7-2.4-13.5-2.1-20.3,0.1c-4.4,1.4-8.5,3.5-12.4,6.1c-2.6,1.8-5.3,3.4-8,5.2c-3,2-6.2,3-9.8,2.5
				c-3-0.4-6.1-0.9-9.4-1.4c0.2-10.5-0.5-20.5-6.4-29.5c8.3-15.8,16.7-31.6,25.1-47.6c18.6,3.1,37.2,3.4,55.9,0.5
				c0.4,0.6,0.9,1.3,1.3,2c8.1,15.1,16.2,30.2,24.4,45.3c0.8,1.4,0.9,2.5,0.2,4c-2.9,5.8-3.9,12.1-4.1,18.4
				C530.4,404.4,530.7,409.2,530.8,414.1z M482.6,350.2c-0.3,0-0.4,0-0.5-0.1c-0.4-0.4-0.8-0.8-1.1-1.2c-3.2-3.8-7.2-5.6-12.2-5.5
				c-11.3,0.3-18.9,11.7-12.6,22c1.9,3.1,4.5,6,7.3,8.4c2.9,2.5,4.9,5.3,5.2,9.2c0.1,0.8,0.5,1.5,0.8,2.3c0.3,0,0.6,0,0.8-0.1
				c0.1-0.9,0.2-1.7,0.3-2.6c0.1-0.7,0.1-1.3,0.1-2c0.7,0.2,1.5,0.3,2.2,0.7c1,0.6,2,1.3,2.9,2c2.4,1.7,4.9,3.4,7.2,5.1
				c0.6-0.4,1.1-0.7,1.5-1c3.9-2.9,7.9-5.9,11.8-8.8c1-0.8,2-1.5,3.4-0.5c2.2,1.6,3.3,1.2,4-1.4c0.2-0.6,0.3-1.3,0.2-1.9
				c-0.2-2,0.6-3.4,1.9-4.9c2.2-2.4,4.1-5.2,4.7-8.5c1.3-6.7-2.2-13.9-8.1-16.8c-6.2-3-13.6-1.5-18.4,3.9
				C483.6,349.1,483.1,349.7,482.6,350.2z"/>
		</g>
		<g>
			<path class="st1" d="M350.9,259c-0.4,0.6-0.7,1.1-1,1.6c-6.8,12.6-13.6,25.2-20.4,37.8c-0.6,1-1.2,2.1-2.1,2.7
				c-0.8,0.5-2.1,0.6-3,0.4c-1.1-0.3-1.6-1.4-1.5-2.6c0.1-0.8,0.1-1.6,0.4-2.4c6.5-16.2,12.8-32.6,19.7-48.6c2.9-6.6,7.2-12.6,11-19
				c2.4,1.1,4.4,2,6.7,3.1c-0.3,1.2-0.4,2.5-0.8,3.6c-2.1,6-4.3,11.9-6.4,17.9c-0.3,0.8-0.3,1.8,0.1,2.5c4.3,10.3,10,19.7,17.2,28.3
				c17.8,21,40.6,33.9,66.8,41.4c0.4,0.1,0.9,0.2,1.3,0.4c0.3,0.1,0.5,0.2,1,0.4c-7.8,12.6-15.7,25.1-23.5,37.7
				c-4.1-3.6-8-7.1-11.9-10.5c-7.2-6.4-14.6-12.6-21.6-19.3c-10.4-10-18.8-21.4-24.1-35c-3.3-8.4-5.5-17.1-6.5-26
				C351.8,268.8,351.4,264.1,350.9,259z"/>
		</g>
		<g>
			<path class="st1" d="M546.8,366.1c-8.3-13.1-16.3-25.9-24.3-38.5c7.4-2.6,14.7-4.8,21.9-7.6c18-7.2,33.7-17.7,46.8-32.1
				c9.2-10,16.2-21.4,21.2-34c0.3-0.7,0.6-1.5,1.2-2.1c0,4,0.2,8.1,0,12.1c-0.6,9.3-1.9,18.6-4.6,27.6c-4.7,16-13.4,29.8-25.2,41.4
				c-7.5,7.3-15.5,14-23.3,21c-3.9,3.5-7.7,6.9-11.6,10.4C548.2,364.8,547.6,365.3,546.8,366.1z"/>
		</g>
		<g>
			<path class="st1" d="M626.5,284.2c2.6-1.4,5.6-2.5,8.1-4.3c7.1-4.8,11.3-11.9,13.2-20c3.8-16.8,1-32.6-8.5-47.1
				c-3.8-5.8-9.1-10.1-15.9-12.2c-1.1-0.3-2.2-0.6-4.1-1c0.9,1.6,1.3,2.7,2,3.7c4.6,6.4,2,13.2-2.1,16.3c-5.9,4.5-12.9,4.5-17.9-0.8
				c-1-1.1-1.9-2.2-3.1-3.5c-3.3,4.9-4.8,10.3-5.7,15.9c-1,5.6-1,11.3,0.5,17c-0.2,0.1-0.5,0.2-0.7,0.3c-1-1-2-2-2.8-3.1
				c-2.4-3.3-3.4-7.1-3.7-11.2c-0.7-8.8,1.8-16.7,6.9-23.7c0.9-1.2,2.1-2.3,3.3-3.2c2.2-1.5,3.4-1.3,5.3,0.5c1.1,1,1.9,2.2,2.8,3.3
				c0.9,1,1.7,2.2,2.6,3.1c2.3,2.3,4.2,2.5,6.8,1c2.5-1.4,3.2-3.1,2.3-6.2c-0.5-1.9-1.3-3.7-2.1-5.6c-0.5-1.3-1.2-2.6-1.7-4
				c-1.2-3.7,0.3-6.5,4.1-7.5c3.6-0.9,7.1-0.2,10.4,1.1c5.4,2.1,9.6,5.8,13.5,9.9c8.1,8.6,13.4,18.7,15.3,30.4
				c1.9,12.6,0.8,24.8-4.9,36.4c-2.5,5.1-6,9.6-11.1,12.4C635.3,284.3,630.9,284.7,626.5,284.2z"/>
		</g>
		<g>
			<path class="st1" d="M512.4,328.8c2-0.5,3.8-0.9,5.8-1.4c16,25.3,31.9,50.5,47.9,76c-4,1.1-7.8,2.2-11.7,3.3
				C540.4,380.8,526.5,354.9,512.4,328.8z"/>
		</g>
		<g>
			<path class="st1" d="M612.5,395.2c3.8-3.7,7.8-6.1,12.6-7.7c10.1-3.2,20-6.9,30-10.3c1.4-0.5,3-0.5,4.5-0.8
				c0.2,0.6,0.5,1,0.4,1.3c-0.6,2.8,1,4.4,3.2,5.5c0.7,0.4,1.4,0.8,2.2,1.1c1.8,0.6,2.3,1.9,1.3,4.2c-0.2,0.4-0.5,0.8-0.7,1.2
				c-1.6,2.6-2.8,5.2,0.4,8.1c-1.4,0.7-2.4,1.4-3.6,1.7c-3.5,1.1-7.1,2.2-10.6,3.2c-7.1,1.9-14.1,3.9-21.2,5.4
				c-3.8,0.8-7.8,0.8-11.6,1.1c-1.8,0.2-2.9-0.6-3.4-2.4C614.9,403,613.6,399,612.5,395.2z M651.2,387.8c0.1-4.8-1.1-5.8-4.9-4.6
				c-6.2,2-12.3,4-18.5,6.2c-1.3,0.5-2.6,1.4-3.6,2.4c-1.4,1.3-1.1,2.3,0.4,3.3c1.5,0.9,3,0.9,4.7,0.3c3.5-1.2,7-2.2,10.5-3.4
				C643.7,390.6,647.4,389.2,651.2,387.8z M630.3,405.7c0.5,0,0.9,0,1.4-0.2c7.1-2,14.1-3.9,21.2-5.9c1.9-0.5,2.4-1.8,1.8-3.8
				c-0.6-2-1.6-2.5-3.7-1.9c-3.7,1-7.3,1.9-11,3c-3.6,1-7.3,2.1-10.9,3.3c-1.9,0.7-2.7,2.2-2.3,3.5
				C627.3,405.5,628.8,405.6,630.3,405.7z"/>
		</g>
		<g>
			<path class="st1" d="M411,401.5c-2.3-0.5-4.4-1.1-6.6-1.2c-2.1-0.1-4.3,0.4-6.7,0.7c0.4-0.8,0.7-1.5,1.1-2.1
				c14.5-23.2,29.1-46.5,43.5-69.7c0.8-1.4,1.6-2,3.2-1.3c1.1,0.5,2.3,0.5,3.7,0.9C436.5,353.1,423.8,377.2,411,401.5z"/>
		</g>
		<g>
			<path class="st1" d="M364.8,205.9c0.7,2.2,2.4,3.1,4.5,3.4c1.5,0.2,2.3,1.2,2.7,2.4c1,3.2,1.4,6.6-1,9.2
				c-2.1,2.3-4.8,4.1-7.2,6.2c-0.2,0.2-0.7,0.4-1,0.3c-2.6-1.2-5.9-1.4-7.1-4.5c-1.3-3.2-0.9-6.3,1.4-8.9
				C359.6,211.3,362.1,208.8,364.8,205.9z"/>
		</g>
		<g>
			<path class="st1" d="M598.5,238.4c0.1-5.8,4.9-8.7,8.4-8.6c5.3,0.2,8.3,3.6,8.5,8.1c0.2,4.7-3.4,8.5-8.2,8.7
				c-0.9,0-1.8,0.2-2.6,0.4c-2.5,0.5-3.6-0.2-4-2.6c-0.1-0.7-0.4-1.3-0.7-2C599.4,241.1,598.9,239.8,598.5,238.4z"/>
		</g>
		<g>
			<path class="st1" d="M572.9,422.9c-3.1,1.1-5.8,2.1-8.8,3.1c-2.1-5.4-3.8-10.6-4.8-16.4c3-0.9,5.8-1.7,8.9-2.7
				C569.8,412.4,571.3,417.6,572.9,422.9z"/>
		</g>
		<g>
			<path class="st1" d="M574.6,421.8c-1.6-5-3.4-9.9-4.3-15.3c2.6-0.7,4.9-1.4,7.3-1.9c0.6-0.1,1.7,0.4,1.9,0.9
				c1.5,4.5,2.8,9.1,4.2,13.6C580.5,420.9,576.9,422,574.6,421.8z"/>
		</g>
		<g>
			<path class="st1" d="M580.7,403.7c3.2-1,6.1-1.8,9.2-2.7c1.6,5.2,3.1,10.1,4.7,15.3c-3.2,1-6,1.9-9.2,2.9
				C583.7,413.9,582.3,409,580.7,403.7z"/>
		</g>
		<g>
			<path class="st1" d="M591.6,400.6c3-0.9,5.8-1.8,8.9-2.7c0.4,1.1,0.8,2.1,1.1,3.1c1,3.2,2,6.4,2.9,9.6c0.6,2.1,0.2,2.6-1.7,3.2
				c-1.5,0.5-3.1,1-4.6,1.5c-1.3,0.5-2.3,0.2-2.7-1.3C594.3,409.6,593,405.2,591.6,400.6z"/>
		</g>
		<g>
			<path class="st1" d="M562.4,426.5c-2.5,0.8-4.7,1.5-7.3,2.4c-1.7-5.5-3.3-10.8-5-16.4c2.4-0.7,4.6-1.4,7.1-2.2
				C559.6,415.4,560.7,420.8,562.4,426.5z"/>
		</g>
		<g>
			<path class="st1" d="M553.5,429.1c-2.3,0.7-4.5,1.4-6.9,2.2c-1.7-5.6-3.3-10.9-4.9-16.4c2.5-0.7,4.5-1.3,6.8-2
				C550.7,418,552,423.4,553.5,429.1z"/>
		</g>
		<g>
			<path class="st1" d="M602.2,397.6c2.9-0.8,5.2-1.5,7.9-2.3c1.4,4.7,2.7,9,4,13.3c0.3,1-0.2,1.6-1.1,1.9c-1.9,0.6-3.8,1.1-6.1,1.8
				C605.3,407.5,603.8,402.8,602.2,397.6z"/>
		</g>
		<g>
			<path class="st1" d="M536.8,434.3c-2.3,0.8-4.3,1.5-6.5,2.2c-1.8-5.7-3.4-11.2-5.2-17c2.2-0.6,4.2-1.3,6.6-2
				C533.4,423.2,535.1,428.6,536.8,434.3z"/>
		</g>
		<g>
			<path class="st1" d="M545.2,431.8c-2.2,0.7-4.3,1.3-6.7,2c-1.7-5.7-3.3-11-5-16.7c2.3-0.7,4.3-1.3,6.5-1.9
				C541.7,420.8,543.4,426.1,545.2,431.8z"/>
		</g>
		<g>
			<path class="st1" d="M484.2,450.8c2.8-7.9,0.1-13.4-6.3-18c2.9-0.9,5-1.5,7.5-2.2c0.9,2.8,1.8,5.4,2.6,7.9
				c0.8,2.7,1.6,5.4,2.4,8.1c0.6,2.1,0.4,2.4-1.7,3.2C487.5,450.1,486.2,450.3,484.2,450.8z"/>
		</g>
		<g>
			<path class="st1" d="M634.4,263.4c-0.6-0.8-1.1-1.6-1.8-2.3c-1.8-2.1-2-3.5-0.8-5.9c0.4-0.7,0.4-1.6,0.6-2.4
				c0.9,0,2.1,0.2,3.3,0.1c3.7-0.1,6.2,3.7,4.5,6.9c-0.3,0.6-0.8,1.2-1,1.9c-0.4,1-1,1.3-2.1,1.3
				C636.3,262.9,635.4,263.2,634.4,263.4z"/>
		</g>
		<g>
			<path class="st1" d="M487.2,430.5c1.4-0.5,2.4-0.9,3.5-1.3c0.3,0.5,0.6,0.9,0.8,1.4c1.5,4.9,3,9.8,4.5,14.7
				c0.4,1.4-0.2,2.1-1.5,2.6c-1.4,0.6-2.1,0-2.5-1.2C490.4,441.4,488.8,436.1,487.2,430.5z"/>
		</g>
		<g>
			<path class="st1" d="M624.2,265c1.8,1.6,3.4,2.9,4.6,4.6c1.2,1.9,1.1,4.6-0.3,6.1c-1.5,1.7-3.9,2.1-6,1c-2.8-1.4-3.5-5.1-1.4-7.4
				C622.3,268,624.3,267.4,624.2,265z"/>
		</g>
		<g>
			<path class="st1" d="M517.9,440.3c-1.6,0.4-2.7,0.8-4,1.1c-0.7-2-1.3-3.9-1.9-5.8c-0.8-2.5-1.5-5-2.2-7.5
				c-0.3-1.3-0.5-2.6-0.8-4.2c1.3-0.4,2.4-0.7,3.7-1C514.4,428.8,516.1,434.4,517.9,440.3z"/>
		</g>
		<g>
			<path class="st1" d="M498,427c1.4-0.3,2.5-0.5,3.8-0.7c1.8,6,3.5,11.6,5.3,17.5c-1.2,0.5-2.1,0.9-3.4,1.4
				C501.2,439.4,499.8,433.5,498,427z"/>
		</g>
		<g>
			<path class="st1" d="M498,446.5c-1.8-5.9-3.5-11.7-5.4-17.8c1.3-0.3,2.5-0.6,3.8-0.9c1.6,5.2,3.1,10.1,4.6,15
				C501.8,445.4,501.3,446.1,498,446.5z"/>
		</g>
		<g>
			<path class="st1" d="M523.1,438.7c-1.3,0.4-2.4,0.7-3.7,1c-1.8-5.8-3.4-11.3-5.2-17c0.6-0.3,1.1-0.5,1.7-0.8
				c1.5-0.6,2.4-0.1,2.8,1.5c1.2,4.4,2.4,8.7,3.7,13C522.6,437.1,522.7,437.7,523.1,438.7z"/>
		</g>
		<g>
			<path class="st1" d="M503.4,425.6c1.3-0.4,2.4-0.7,3.9-1.2c1.6,5.7,3.2,11,4.6,16.3c0.5,1.7,0.1,1.9-3,2.5
				C507.1,437.5,505.3,431.8,503.4,425.6z"/>
		</g>
		<g>
			<path class="st1" d="M528.5,437c-1.3,0.4-2.3,0.7-3.7,1.2c-1.7-5.7-3.4-11.2-5.1-16.9c1.4-0.4,2.4-0.7,3.7-1.1
				C525.1,425.8,526.7,431.2,528.5,437z"/>
		</g>
		<g>
			<path class="st1" d="M478.2,430.3c-5.5-1.8-10.6-1.3-15.4,2c-3.1,2.1-4.7,5.2-5.8,8.6c-1.7,5.3,0.1,13.4,7,17.6
				c3.8,2.3,7.9,2.6,12.1,1.7c4.2-0.9,7.1-3.7,9.5-7.2c-1.5,5.9-11.2,10-17.7,8.1c-11.2-3.3-14.4-14.8-11.1-22.6
				C460.7,429.4,472,426.5,478.2,430.3z"/>
		</g>
		<g>
			<path class="st1" d="M641.4,377.8c2.4-0.5,4.7-1,7.2-1.6c0.6,0.7,1,1.4-0.1,2.2C646.7,379.9,643.8,379.6,641.4,377.8z"/>
		</g>
		<g>
			<path class="st1" d="M631.8,381.1c2.2-0.5,4-0.9,5.9-1.2c0.4-0.1,1,0.5,1.5,0.8c-0.2,0.4-0.4,1-0.8,1.3
				C636.6,383.4,634.2,383.1,631.8,381.1z"/>
		</g>
		<g>
			<path class="st1" d="M628.3,383c0.1,0.1,0.6,0.6,1.2,1.1c-0.6,0.5-1.1,1-1.7,1.4c-1.9,1.1-3.8,1.2-5.8-0.5
				C623.9,384.3,625.7,383.8,628.3,383z"/>
		</g>
		<g>
			<path class="st1" d="M647.1,405.8c-0.8,1.2-4.8,3.4-6.5,3.6C641,406.2,641.8,406.3,647.1,405.8z"/>
		</g>
		<g>
			<path class="st1" d="M637.2,409c-0.5,0.5-1.3,1.4-1.6,1.3c-2.4-1-3.3,1.2-5,2c-1.3-0.6-0.5-1.4-0.1-1.9c1.6-2.3,4.1-1.6,6.2-2.1
				C636.9,408.5,637.1,408.8,637.2,409z"/>
		</g>
		<g>
			<path class="st1" d="M650.4,407.2c0.6-3.1,3.1-4.6,7.2-3.9c-0.9,0.7-1.4,1.4-2,1.5c-1.7,0.1-2.9,0.8-3.9,2.1
				C651.5,407.1,650.9,407.1,650.4,407.2z"/>
		</g>
		<g>
			<path class="st1" d="M646.8,388.1c-0.4-1.2-0.7-2.2-1.1-3.4c1.5-0.5,2.4-0.7,2.9,1C649,387.2,648.9,388,646.8,388.1z"/>
		</g>
		<g>
			<path class="st1" d="M637.7,391.5c-1.7-2.6-1.7-3,0-4.4c1.1,0.7,1.5,1.9,1.4,3.2C639.1,390.7,638.2,391.1,637.7,391.5z"/>
		</g>
		<g>
			<path class="st1" d="M627.2,394.6c-1-3-1-3,0.8-3.9C629.6,393.4,629.6,393.6,627.2,394.6z"/>
		</g>
		<g>
			<path class="st1" d="M650.1,399c-0.3-1.2-0.6-2.2-0.9-3.2c2.3-0.9,2.3-0.9,3,2.4c-0.3,0.2-0.7,0.5-1.1,0.7
				C650.9,399,650.6,399,650.1,399z"/>
		</g>
		<g>
			<path class="st1" d="M639.3,398.2c2.3-0.3,2.3-0.3,3,2.7c-0.3,0.2-0.7,0.5-1.1,0.7c-0.2,0.1-0.5,0.1-0.9,0.2
				C640,400.6,639.7,399.5,639.3,398.2z"/>
		</g>
		<g>
			<path class="st1" d="M631.4,400.7c0.3,0.9,0.6,1.7,0.7,2.5c0,0.4-0.4,1.1-0.7,1.2c-0.3,0.1-1-0.2-1.3-0.5
				C629,402.4,629.3,401.4,631.4,400.7z"/>
		</g>
	</g>
</g>
</svg>
